<svg width="50" height="50" viewBox="0 0 50 50" fill="none" xmlns="http://www.w3.org/2000/svg">
<path d="M25 50C38.8071 50 50 38.8071 50 25C50 11.1929 38.8071 0 25 0C11.1929 0 0 11.1929 0 25C0 38.8071 11.1929 50 25 50Z" fill="#FF3131"/>
<path d="M25.9042 24.9901H35.3983C35.5901 24.9901 35.686 24.9901 35.71 24.7263C35.7819 23.7674 35.7819 22.7844 35.71 21.8254C35.71 21.6336 35.614 21.5617 35.4222 21.5617H16.5301C16.2904 21.5617 16.2423 21.6336 16.2423 21.8494V24.6305C16.2423 24.9901 16.2423 24.9901 16.626 24.9901H25.9042ZM34.6551 18.3011C34.679 18.2292 34.679 18.1572 34.6551 18.0854C34.4872 17.7497 34.3194 17.414 34.0796 17.1023C33.744 16.5749 33.3605 16.0955 32.9288 15.6399C32.7131 15.3762 32.4734 15.1364 32.2096 14.9447C30.8671 13.7938 29.2607 12.9787 27.5346 12.5711C26.6714 12.3793 25.7844 12.2834 24.8733 12.2834H16.5061C16.2663 12.2834 16.2423 12.3793 16.2423 12.5711V18.1093C16.2423 18.349 16.2423 18.397 16.5301 18.397H34.5352C34.5352 18.397 34.703 18.373 34.727 18.2772H34.6551V18.3011ZM34.6551 28.2267C34.3913 28.2027 34.1276 28.2027 33.8639 28.2267H16.554C16.3143 28.2267 16.2423 28.2267 16.2423 28.5384V33.9567C16.2423 34.1964 16.2423 34.2684 16.554 34.2684H24.5377C24.9213 34.2923 25.3049 34.2684 25.6645 34.1964C26.8153 34.1245 27.9661 33.8608 29.0449 33.4532C29.4286 33.3094 29.8121 33.1415 30.1718 32.9258H30.2916C32.1617 31.9428 33.6961 30.4324 34.6551 28.5384C34.6551 28.5144 34.7749 28.2986 34.6551 28.2267ZM13.1017 37.0734V36.9775V33.3333V32.1106V28.4425C13.1017 28.2506 13.1017 28.2027 12.8619 28.2027H9.48143C9.28965 28.2027 9.21777 28.2027 9.21777 27.963V24.9901H12.838C13.0297 24.9901 13.1256 24.9901 13.1256 24.7263V21.8014C13.1256 21.6097 13.1256 21.5617 12.8859 21.5617H9.48143C9.28965 21.5617 9.21777 21.5617 9.21777 21.322V18.5648C9.21777 18.397 9.21777 18.349 9.45751 18.349H12.8139C13.0538 18.349 13.1017 18.349 13.1017 18.0613V9.64617C13.1017 9.40644 13.1017 9.33447 13.4133 9.33447H25.113C25.9521 9.35849 26.8153 9.45438 27.6305 9.62224C29.3566 9.93385 31.0109 10.5572 32.5213 11.4203C33.5282 12.0197 34.4393 12.7149 35.2784 13.5541C35.9018 14.2014 36.4532 14.8967 36.9566 15.6399C37.4362 16.3831 37.8438 17.1982 38.1794 18.0374C38.2273 18.2531 38.4191 18.397 38.6349 18.373H41.416C41.7756 18.373 41.7756 18.373 41.7996 18.7087V21.274C41.7996 21.5138 41.7037 21.5856 41.4639 21.5856H39.3062C39.0905 21.5856 39.0185 21.5856 39.0425 21.8734C39.1384 22.8323 39.1384 23.7674 39.0425 24.7263C39.0425 24.9901 39.0425 25.014 39.3302 25.014H41.7996C41.9195 25.158 41.7996 25.3018 41.7996 25.4456C41.8236 25.6374 41.8236 25.8053 41.7996 25.9971V27.8911C41.7996 28.1547 41.7277 28.2267 41.488 28.2267H38.539C38.3232 28.1788 38.1314 28.3226 38.0835 28.5144C37.3882 30.3365 36.2613 31.9668 34.7989 33.2854C34.2714 33.7649 33.72 34.2205 33.1207 34.628C32.4973 34.9876 31.898 35.3712 31.2506 35.6589C30.0759 36.1863 28.8292 36.5699 27.5585 36.8337C26.3597 37.0495 25.1371 37.1454 23.9143 37.1213L13.1017 37.0734Z" fill="#FEFEFD"/>
</svg>
