<svg width="50" height="50" viewBox="0 0 50 50" fill="none" xmlns="http://www.w3.org/2000/svg">
<path d="M25 50C38.8071 50 50 38.8071 50 25C50 11.1929 38.8071 0 25 0C11.1929 0 0 11.1929 0 25C0 38.8071 11.1929 50 25 50Z" fill="#FF3131"/>
<path fill-rule="evenodd" clip-rule="evenodd" d="M4.47331 37.5983C4.86683 38.2465 5.28349 38.8715 5.74645 39.4733L8.70942 37.7604C8.24645 37.1585 7.80664 36.5566 7.41312 35.9085L4.47331 37.5983ZM43.2465 15.214C43.5937 15.8854 43.9178 16.5566 44.2187 17.2742L47.1816 15.5613C46.8807 14.8668 46.5566 14.1956 46.1863 13.5242L43.2465 15.214ZM45.0057 11.603L42.0659 13.2928C41.6261 12.6678 41.1631 12.0659 40.677 11.4872L43.6632 9.77422C44.1261 10.353 44.589 10.9548 45.0057 11.603ZM6.32516 33.9178L3.38535 35.6075C3.06127 34.9363 2.76035 34.2418 2.48257 33.5242L5.46868 31.8113C5.72331 32.5289 6.00109 33.2465 6.32516 33.9178ZM1.23257 21.2325C1.3946 20.214 1.60294 19.2187 1.90386 18.2465L6.62609 15.5149C6.07052 16.603 5.60757 17.7372 5.23719 18.9178L1.23257 21.2325ZM9.63538 11.1631C12.5057 7.96868 16.3715 5.67701 20.7465 4.75109L27.2048 1.02423C26.464 0.954792 25.7465 0.931641 25.0057 0.931641C15.3066 0.931641 6.95016 6.64923 3.15386 14.9131L9.63538 11.1631ZM29.6354 4.84368C28.4548 4.5659 27.228 4.40386 25.978 4.35757L30.7002 1.62609C31.6956 1.88071 32.6909 2.18164 33.6399 2.52886L29.6354 4.84368ZM21.2094 48.7789C22.4363 48.964 23.7094 49.0798 25.0057 49.0798C35.2604 49.0798 44.0335 42.6446 47.5057 33.6168L42.0428 36.7649C38.6168 41.7418 33.0613 45.1215 26.6956 45.6307L21.2094 48.7789ZM44.103 32.9456L48.4548 30.4223C48.6632 29.4733 48.8251 28.5242 48.9409 27.5289L45.1446 29.728C44.8899 30.8622 44.5428 31.927 44.103 32.9456ZM22.3437 45.5149L17.9918 48.0381C17.0428 47.7604 16.1399 47.4132 15.2604 47.0196L19.0566 44.8206C20.1215 45.1446 21.2094 45.3761 22.3437 45.5149ZM1.76497 31.3483C1.55664 30.5844 1.3946 29.8206 1.25571 29.0335L4.42701 27.2048C4.51961 28.0149 4.63535 28.802 4.82052 29.589L1.76497 31.3483ZM39.0566 9.82056C38.478 9.26493 37.853 8.75571 37.2048 8.29275L40.3761 6.46405C40.978 6.97331 41.5566 7.50571 42.1122 8.06127L39.0566 9.82056ZM35.052 6.90386L38.3854 4.98257C37.6678 4.49645 36.927 4.05664 36.1631 3.66312L32.5751 5.74645C33.4316 6.07052 34.2418 6.46405 35.052 6.90386ZM0.977935 26.5798L4.31127 24.6585C4.33442 23.7325 4.40386 22.8066 4.54275 21.927L0.954792 24.0104C0.931641 24.3344 0.931641 24.6585 0.931641 25.0057C0.931641 25.5381 0.954792 26.0706 0.977935 26.5798ZM10.7465 44.4039C11.4178 44.9132 12.1354 45.3761 12.853 45.7928L16.3251 43.7789C15.5149 43.4085 14.7511 42.9918 14.0104 42.5057L10.7465 44.4039ZM45.677 24.2418C45.677 24.4965 45.7001 24.7511 45.7001 25.0057C45.7001 25.6307 45.677 26.2557 45.6075 26.8807L49.0798 24.8668C49.0798 24.0104 49.0335 23.177 48.9409 22.3437L45.677 24.2418ZM48.5473 19.9594L45.4456 21.7649C45.3298 20.978 45.1446 20.214 44.9363 19.4501L47.9456 17.714C48.177 18.4548 48.3854 19.1956 48.5473 19.9594ZM11.9733 41.0706L8.87145 42.8761C8.29275 42.3437 7.73719 41.8113 7.20479 41.2325L10.214 39.4965C10.7928 40.052 11.3715 40.5844 11.9733 41.0706Z" fill="white"/>
<path d="M28.9872 22.3224C28.3854 24.6372 24.7974 23.4335 23.64 23.1557L24.6817 19.0353C25.8622 19.3362 29.6122 19.8918 28.9872 22.3224ZM28.316 28.9659C27.6678 31.5122 23.3623 30.1233 21.9734 29.7529L23.1539 25.2159C24.5197 25.5862 29.0104 26.3038 28.316 28.9659ZM33.0845 22.3918C33.478 19.8918 31.5798 18.5492 28.9872 17.6233L29.8438 14.2436L27.7836 13.7112L26.9502 16.9983C26.4178 16.8594 25.8622 16.7205 25.3067 16.6048L26.14 13.2946L24.0798 12.7622L23.2234 16.1418C22.7836 16.0492 22.3438 15.9335 21.9039 15.8177L19.0567 15.1002L18.5012 17.2992C18.5012 17.2992 20.0289 17.6696 19.9826 17.6696C20.5845 17.739 21.0012 18.2714 20.9317 18.8733L19.9595 22.7159C20.0289 22.739 20.0984 22.7622 20.1678 22.7853L19.9595 22.739L18.5706 28.1326C18.4317 28.526 18.015 28.7344 17.6215 28.6186C17.6447 28.6418 16.1169 28.2252 16.1169 28.2252L15.0752 30.5862L17.7604 31.2807L19.2419 31.651L18.3623 35.0769L20.4224 35.6094L21.2789 32.2298C21.8114 32.3918 22.3669 32.5307 22.9224 32.6696L22.066 36.0492L24.1262 36.5816L25.0058 33.1557C28.5243 33.8502 31.1632 33.5955 32.2974 30.4242C33.2002 27.8548 32.2743 26.3964 30.4456 25.401C31.765 25.1002 32.7836 24.2205 33.0845 22.3918Z" fill="white"/>
</svg>
