<svg width="50" height="50" viewBox="0 0 50 50" fill="none" xmlns="http://www.w3.org/2000/svg">
<path d="M25 50C38.8071 50 50 38.8071 50 25C50 11.1929 38.8071 0 25 0C11.1929 0 0 11.1929 0 25C0 38.8071 11.1929 50 25 50Z" fill="#FF3131"/>
<path d="M31.7297 27.2956C31.7297 23.7771 29.6232 22.5734 25.4102 22.0873C22.4009 21.6938 21.7992 20.8836 21.7992 19.4716C21.7992 18.0595 22.7945 17.1567 24.8084 17.1567C26.614 17.1567 27.6093 17.7586 28.1185 19.2632C28.2111 19.5642 28.5121 19.7725 28.813 19.7725H30.4102C30.8037 19.7725 31.1047 19.4716 31.1047 19.078V18.9854C30.7111 16.7864 28.9056 15.0734 26.5908 14.8651V12.4576C26.5908 12.0642 26.2899 11.7632 25.7806 11.6475H24.3223C23.9287 11.6475 23.6278 11.9484 23.5121 12.4576V14.7725C20.5028 15.166 18.6047 17.1799 18.6047 19.6799C18.6047 22.99 20.6185 24.2864 24.8316 24.7956C27.6325 25.3049 28.5352 25.9067 28.5352 27.504C28.5352 29.1012 27.1232 30.2123 25.225 30.2123C22.6093 30.2123 21.7066 29.1012 21.4056 27.5966C21.313 27.203 21.0121 26.9947 20.7111 26.9947H18.9982C18.6047 26.9947 18.3037 27.2956 18.3037 27.6892V27.7817C18.6973 30.2817 20.3176 32.0873 23.6278 32.5966V35.004C23.6278 35.3975 23.9287 35.6984 24.438 35.8142H25.9426C26.3361 35.8142 26.6371 35.5132 26.7528 35.004V32.5966C29.739 32.1104 31.7297 30.004 31.7297 27.2956Z" fill="white"/>
<path d="M19.97 37.8183C12.1459 35.0174 8.14126 26.2905 11.0347 18.559C12.5394 14.346 15.8496 11.1285 19.97 9.62381C20.3635 9.41551 20.5718 9.11462 20.5718 8.62846V7.2164C20.5718 6.82292 20.3635 6.52199 19.97 6.40625C19.8773 6.40625 19.669 6.40625 19.5764 6.49885C10.0394 9.5081 4.83108 19.6238 7.84034 29.1609C9.64591 34.7859 13.9514 39.0914 19.5764 40.897C19.97 41.1053 20.3866 40.897 20.4792 40.5035C20.5718 40.4109 20.5718 40.2951 20.5718 40.11V38.721C20.5718 38.4201 20.2709 38.0035 19.97 37.8183ZM30.6181 6.52199C30.2246 6.31366 29.808 6.52199 29.7154 6.91551C29.6228 7.00811 29.6228 7.12385 29.6228 7.30899V8.72104C29.6228 9.11462 29.9237 9.53122 30.2246 9.7164C38.0487 12.5174 42.0533 21.2443 39.1597 28.9757C37.6552 33.1886 34.345 36.4062 30.2246 37.9109C29.8311 38.1193 29.6228 38.4202 29.6228 38.9062V40.3183C29.6228 40.7118 29.8311 41.0127 30.2246 41.1285C30.3172 41.1285 30.5255 41.1285 30.6181 41.0359C40.1552 38.0267 45.3635 27.9109 42.3542 18.3738C40.5255 12.6331 36.1273 8.32756 30.6181 6.52199Z" fill="white"/>
</svg>
