<svg width="50" height="50" viewBox="0 0 50 50" fill="none" xmlns="http://www.w3.org/2000/svg">
<path d="M25 50C38.8071 50 50 38.8071 50 25C50 11.1929 38.8071 0 25 0C11.1929 0 0 11.1929 0 25C0 38.8071 11.1929 50 25 50Z" fill="#FF3131"/>
<g opacity="0.602005">
<path d="M25.7578 4.47607V18.3355L37.4719 23.5698L25.7578 4.47607Z" fill="white"/>
</g>
<path d="M25.7928 4.45947L14.0771 23.5532L25.7928 18.3188V4.45947Z" fill="white"/>
<g opacity="0.602005">
<path d="M25.7578 32.5412V41.9584L37.4797 25.7412L25.7578 32.5412Z" fill="white"/>
</g>
<path d="M25.7928 41.9584V32.5397L14.0771 25.7412L25.7928 41.9584Z" fill="white"/>
<g opacity="0.199997">
<path d="M25.7578 30.3692L37.4719 23.5677L25.7578 18.3364V30.3692Z" fill="white"/>
</g>
<g opacity="0.602005">
<path d="M14.043 23.5677L25.7586 30.3692V18.3364L14.043 23.5677Z" fill="white"/>
</g>
</svg>
