<svg width="50" height="50" viewBox="0 0 50 50" fill="none" xmlns="http://www.w3.org/2000/svg">
<path d="M25 50C38.8071 50 50 38.8071 50 25C50 11.1929 38.8071 0 25 0C11.1929 0 0 11.1929 0 25C0 38.8071 11.1929 50 25 50Z" fill="#35CC00"/>
<path d="M25.9052 24.9901H35.3993C35.5911 24.9901 35.687 24.9901 35.711 24.7263C35.7829 23.7674 35.7829 22.7844 35.711 21.8254C35.711 21.6336 35.615 21.5617 35.4232 21.5617H16.5311C16.2913 21.5617 16.2433 21.6336 16.2433 21.8494V24.6305C16.2433 24.9901 16.2433 24.9901 16.627 24.9901H25.9052ZM34.6561 18.3011C34.68 18.2292 34.68 18.1572 34.6561 18.0854C34.4882 17.7497 34.3204 17.414 34.0806 17.1023C33.745 16.5749 33.3614 16.0955 32.9298 15.6399C32.7141 15.3762 32.4744 15.1364 32.2106 14.9447C30.868 13.7938 29.2617 12.9787 27.5355 12.5711C26.6724 12.3793 25.7854 12.2834 24.8743 12.2834H16.5071C16.2673 12.2834 16.2433 12.3793 16.2433 12.5711V18.1093C16.2433 18.349 16.2433 18.397 16.5311 18.397H34.5362C34.5362 18.397 34.704 18.373 34.728 18.2772H34.6561V18.3011ZM34.6561 28.2267C34.3923 28.2027 34.1286 28.2027 33.8649 28.2267H16.555C16.3153 28.2267 16.2433 28.2267 16.2433 28.5384V33.9567C16.2433 34.1964 16.2433 34.2684 16.555 34.2684H24.5387C24.9222 34.2923 25.3059 34.2684 25.6654 34.1964C26.8163 34.1245 27.9671 33.8608 29.0459 33.4532C29.4296 33.3094 29.8131 33.1415 30.1728 32.9258H30.2926C32.1627 31.9428 33.6971 30.4324 34.6561 28.5384C34.6561 28.5144 34.7759 28.2986 34.6561 28.2267ZM13.1027 37.0734V36.9775V33.3333V32.1106V28.4425C13.1027 28.2506 13.1027 28.2027 12.8629 28.2027H9.48241C9.29062 28.2027 9.21875 28.2027 9.21875 27.963V24.9901H12.8389C13.0307 24.9901 13.1266 24.9901 13.1266 24.7263V21.8014C13.1266 21.6097 13.1266 21.5617 12.8869 21.5617H9.48241C9.29062 21.5617 9.21875 21.5617 9.21875 21.322V18.5648C9.21875 18.397 9.21875 18.349 9.45848 18.349H12.8149C13.0547 18.349 13.1027 18.349 13.1027 18.0613V9.64617C13.1027 9.40644 13.1027 9.33447 13.4143 9.33447H25.114C25.9531 9.35849 26.8163 9.45438 27.6314 9.62224C29.3576 9.93385 31.0119 10.5572 32.5223 11.4203C33.5292 12.0197 34.4403 12.7149 35.2794 13.5541C35.9028 14.2014 36.4542 14.8967 36.9576 15.6399C37.4371 16.3831 37.8447 17.1982 38.1804 18.0374C38.2283 18.2531 38.4201 18.397 38.6359 18.373H41.417C41.7766 18.373 41.7766 18.373 41.8005 18.7087V21.274C41.8005 21.5138 41.7046 21.5856 41.4649 21.5856H39.3071C39.0914 21.5856 39.0195 21.5856 39.0435 21.8734C39.1394 22.8323 39.1394 23.7674 39.0435 24.7263C39.0435 24.9901 39.0435 25.014 39.3312 25.014H41.8005C41.9205 25.158 41.8005 25.3018 41.8005 25.4456C41.8246 25.6374 41.8246 25.8053 41.8005 25.9971V27.8911C41.8005 28.1547 41.7287 28.2267 41.4889 28.2267H38.54C38.3242 28.1788 38.1324 28.3226 38.0845 28.5144C37.3892 30.3365 36.2623 31.9668 34.7999 33.2854C34.2724 33.7649 33.721 34.2205 33.1217 34.628C32.4983 34.9876 31.8989 35.3712 31.2516 35.6589C30.0769 36.1863 28.8302 36.5699 27.5595 36.8337C26.3607 37.0495 25.138 37.1454 23.9153 37.1213L13.1027 37.0734Z" fill="#FEFEFD"/>
</svg>
