<svg width="56" height="58" viewBox="0 0 56 58" fill="none" xmlns="http://www.w3.org/2000/svg">
<path d="M28 58C43.464 58 56 45.464 56 30C56 14.536 43.464 2 28 2C12.536 2 0 14.536 0 30C0 45.464 12.536 58 28 58Z" fill="#35CC00"/>
<path d="M27.9997 0.046875C43.4395 0.046875 55.9524 12.5598 55.9524 27.9997C55.9524 43.4395 43.4395 55.9524 27.9997 55.9524C12.5598 55.9524 0.046875 43.4395 0.046875 27.9997C0.046875 12.5598 12.5598 0.046875 27.9997 0.046875Z" fill="#F5AC37"/>
<path d="M29.0199 29.9869H39.6533C39.8681 29.9869 39.9755 29.9869 40.0024 29.6915C40.0829 28.6175 40.0829 27.5165 40.0024 26.4424C40.0024 26.2276 39.8949 26.1471 39.6801 26.1471H18.5209C18.2524 26.1471 18.1986 26.2276 18.1986 26.4693V29.5841C18.1986 29.9869 18.1986 29.9869 18.6283 29.9869H29.0199ZM38.8209 22.4952C38.8477 22.4147 38.8477 22.3341 38.8209 22.2536C38.6329 21.8776 38.4449 21.5017 38.1764 21.1526C37.8005 20.5619 37.3709 20.0249 36.8875 19.5147C36.6459 19.2193 36.3774 18.9508 36.082 18.736C34.5783 17.4471 32.7792 16.5341 30.8459 16.0776C29.8792 15.8628 28.8857 15.7554 27.8653 15.7554H18.494C18.2255 15.7554 18.1986 15.8628 18.1986 16.0776V22.2804C18.1986 22.5489 18.1986 22.6026 18.5209 22.6026H38.6866C38.6866 22.6026 38.8746 22.5758 38.9014 22.4684H38.8209V22.4952ZM38.8209 33.6119C38.5255 33.585 38.2301 33.585 37.9348 33.6119H18.5477C18.2792 33.6119 18.1986 33.6119 18.1986 33.961V40.0295C18.1986 40.298 18.1986 40.3786 18.5477 40.3786H27.4894C27.919 40.4054 28.3487 40.3786 28.7514 40.298C30.0403 40.2174 31.3292 39.9221 32.5375 39.4656C32.9672 39.3045 33.3968 39.1165 33.7996 38.8749H33.9338C36.0283 37.7739 37.7468 36.0823 38.8209 33.961C38.8209 33.9341 38.9551 33.6924 38.8209 33.6119ZM14.6811 43.5202V43.4128V39.3313V37.9619V33.8536C14.6811 33.6387 14.6811 33.585 14.4125 33.585H10.6264C10.4116 33.585 10.3311 33.585 10.3311 33.3165V29.9869H14.3857C14.6005 29.9869 14.7079 29.9869 14.7079 29.6915V26.4156C14.7079 26.2008 14.7079 26.1471 14.4394 26.1471H10.6264C10.4116 26.1471 10.3311 26.1471 10.3311 25.8786V22.7906C10.3311 22.6026 10.3311 22.5489 10.5996 22.5489H14.3588C14.6274 22.5489 14.6811 22.5489 14.6811 22.2267V12.8017C14.6811 12.5332 14.6811 12.4526 15.0301 12.4526H28.1338C29.0736 12.4795 30.0403 12.5869 30.9533 12.7749C32.8866 13.1239 34.7394 13.8221 36.4311 14.7887C37.5588 15.46 38.5792 16.2387 39.519 17.1786C40.2172 17.9036 40.8348 18.6823 41.3986 19.5147C41.9357 20.3471 42.3922 21.26 42.7681 22.1999C42.8218 22.4415 43.0366 22.6026 43.2783 22.5758H46.3931C46.7959 22.5758 46.7959 22.5758 46.8227 22.9517V25.8249C46.8227 26.0934 46.7153 26.1739 46.4468 26.1739H44.0301C43.7885 26.1739 43.7079 26.1739 43.7348 26.4962C43.8422 27.5702 43.8422 28.6175 43.7348 29.6915C43.7348 29.9869 43.7348 30.0137 44.057 30.0137H46.8227C46.957 30.1749 46.8227 30.336 46.8227 30.4971C46.8496 30.7119 46.8496 30.8999 46.8227 31.1147V33.236C46.8227 33.5313 46.7422 33.6119 46.4737 33.6119H43.1709C42.9292 33.5582 42.7144 33.7193 42.6607 33.9341C41.882 35.9749 40.6199 37.8008 38.982 39.2776C38.3912 39.8147 37.7736 40.3249 37.1024 40.7813C36.4042 41.1841 35.7329 41.6137 35.0079 41.936C33.6922 42.5267 32.2959 42.9563 30.8727 43.2517C29.5301 43.4934 28.1607 43.6008 26.7912 43.5739L14.6811 43.5202Z" fill="#FEFEFD"/>
</svg>
