<svg width="56" height="56" viewBox="0 0 56 56" fill="none" xmlns="http://www.w3.org/2000/svg">
<path d="M28 56C43.464 56 56 43.464 56 28C56 12.536 43.464 0 28 0C12.536 0 0 12.536 0 28C0 43.464 12.536 56 28 56Z" fill="#35CC00"/>
<path fill-rule="evenodd" clip-rule="evenodd" d="M5.00378 42.1038C5.44452 42.8297 5.91118 43.5297 6.4297 44.2038L9.74822 42.2853C9.2297 41.6112 8.73711 40.9371 8.29637 40.2112L5.00378 42.1038ZM48.4297 17.0334C48.8186 17.7853 49.1816 18.5371 49.5186 19.3408L52.8371 17.4223C52.5001 16.6445 52.1371 15.8927 51.7223 15.1408L48.4297 17.0334ZM50.4001 12.989L47.1075 14.8816C46.6149 14.1816 46.0964 13.5075 45.5519 12.8593L48.8964 10.9408C49.4149 11.589 49.9334 12.263 50.4001 12.989ZM7.07785 37.9816L3.78526 39.8741C3.42229 39.1223 3.08526 38.3445 2.77415 37.5408L6.11859 35.6223C6.40378 36.426 6.71489 37.2297 7.07785 37.9816ZM1.37415 23.7741C1.55563 22.6334 1.78896 21.5186 2.126 20.4297L7.41489 17.3704C6.79266 18.589 6.27415 19.8593 5.85933 21.1816L1.37415 23.7741ZM10.7853 12.4964C14.0001 8.91859 18.3297 6.35192 23.2297 5.31489L30.463 1.14081C29.6334 1.06304 28.8297 1.03711 28.0001 1.03711C17.1371 1.03711 7.77785 7.44081 3.526 16.6964L10.7853 12.4964ZM33.1853 5.41859C31.863 5.10748 30.489 4.926 29.089 4.87415L34.3779 1.81489C35.4927 2.10007 36.6075 2.43711 37.6704 2.826L33.1853 5.41859ZM23.7482 54.626C25.1223 54.8334 26.5482 54.963 28.0001 54.963C39.4853 54.963 49.3112 47.7556 53.2001 37.6445L47.0816 41.1704C43.2445 46.7445 37.0223 50.5297 29.8927 51.1001L23.7482 54.626ZM49.389 36.8927L54.263 34.0667C54.4964 33.0038 54.6778 31.9408 54.8075 30.826L50.5556 33.289C50.2704 34.5593 49.8816 35.7519 49.389 36.8927ZM25.0186 50.9704L20.1445 53.7964C19.0816 53.4853 18.0704 53.0964 17.0853 52.6556L21.3371 50.1927C22.5297 50.5556 23.7482 50.8149 25.0186 50.9704ZM1.97044 35.1038C1.73711 34.2482 1.55563 33.3927 1.40007 32.5112L4.95192 30.463C5.05563 31.3704 5.18526 32.2519 5.39266 33.1334L1.97044 35.1038ZM43.7371 10.9927C43.089 10.3704 42.389 9.80007 41.663 9.28155L45.2149 7.23341C45.889 7.80378 46.5371 8.40007 47.1593 9.02229L43.7371 10.9927ZM39.2519 7.726L42.9853 5.57415C42.1816 5.0297 41.3519 4.53711 40.4964 4.09637L36.4778 6.4297C37.4371 6.79266 38.3445 7.23341 39.2519 7.726ZM1.08896 29.763L4.82229 27.6112C4.84822 26.5741 4.926 25.5371 5.08155 24.5519L1.06304 26.8853C1.03711 27.2482 1.03711 27.6112 1.03711 28.0001C1.03711 28.5964 1.06304 29.1927 1.08896 29.763ZM12.0297 49.726C12.7816 50.2964 13.5853 50.8149 14.389 51.2816L18.2778 49.026C17.3704 48.6112 16.5149 48.1445 15.6853 47.6001L12.0297 49.726ZM51.1519 27.1445C51.1519 27.4297 51.1778 27.7149 51.1778 28.0001C51.1778 28.7001 51.1519 29.4001 51.0741 30.1001L54.963 27.8445C54.963 26.8853 54.9112 25.9519 54.8075 25.0186L51.1519 27.1445ZM54.3667 22.3482L50.8927 24.3704C50.763 23.489 50.5556 22.6334 50.3223 21.7778L53.6927 19.8334C53.9519 20.663 54.1853 21.4927 54.3667 22.3482ZM13.4038 45.9927L9.9297 48.0149C9.28155 47.4186 8.65933 46.8223 8.06304 46.1741L11.4334 44.2297C12.0816 44.8519 12.7297 45.4482 13.4038 45.9927Z" fill="black"/>
<path d="M28.0001 49.0519C39.6267 49.0519 49.0519 39.6267 49.0519 28.0001C49.0519 16.3735 39.6267 6.94824 28.0001 6.94824C16.3735 6.94824 6.94824 16.3735 6.94824 28.0001C6.94824 39.6267 16.3735 49.0519 28.0001 49.0519Z" fill="#F7931A"/>
<path d="M32.4594 24.9926C31.7853 27.5852 27.7668 26.237 26.4705 25.9259L27.6372 21.3111C28.9594 21.6481 33.1594 22.2703 32.4594 24.9926ZM31.7076 32.4333C30.9816 35.2852 26.1594 33.7296 24.6039 33.3148L25.9261 28.2333C27.4557 28.6481 32.4853 29.4518 31.7076 32.4333ZM37.0483 25.0703C37.489 22.2703 35.3631 20.7666 32.4594 19.7296L33.4187 15.9444L31.1113 15.3481L30.1779 19.0296C29.5816 18.874 28.9594 18.7185 28.3372 18.5889L29.2705 14.8815L26.9631 14.2852L26.0039 18.0703C25.5113 17.9666 25.0187 17.837 24.5261 17.7074L21.3372 16.9037L20.715 19.3666C20.715 19.3666 22.4261 19.7815 22.3742 19.7815C23.0483 19.8592 23.515 20.4555 23.4372 21.1296L22.3483 25.4333C22.4261 25.4592 22.5039 25.4852 22.5816 25.5111L22.3483 25.4592L20.7927 31.5C20.6372 31.9407 20.1705 32.174 19.7298 32.0444C19.7557 32.0703 18.0446 31.6037 18.0446 31.6037L16.8779 34.2481L19.8853 35.0259L21.5446 35.4407L20.5594 39.2777L22.8668 39.874L23.8261 36.0889C24.4224 36.2703 25.0446 36.4259 25.6668 36.5815L24.7076 40.3666L27.015 40.9629L28.0002 37.1259C31.9409 37.9037 34.8965 37.6185 36.1668 34.0666C37.1779 31.1889 36.1409 29.5555 34.0927 28.4407C35.5705 28.1037 36.7113 27.1185 37.0483 25.0703Z" fill="white"/>
</svg>
