<svg width="50" height="50" viewBox="0 0 50 50" fill="none" xmlns="http://www.w3.org/2000/svg">
<path d="M25 50C38.8071 50 50 38.8071 50 25C50 11.1929 38.8071 0 25 0C11.1929 0 0 11.1929 0 25C0 38.8071 11.1929 50 25 50Z" fill="#35CC00"/>
<path fill-rule="evenodd" clip-rule="evenodd" d="M4.47331 37.5817C4.86683 38.2299 5.28349 38.8549 5.74645 39.4567L8.70942 37.7438C8.24645 37.1419 7.80664 36.54 7.41312 35.8919L4.47331 37.5817ZM43.2465 15.1974C43.5937 15.8688 43.9178 16.54 44.2187 17.2576L47.1816 15.5447C46.8807 14.8502 46.5566 14.179 46.1863 13.5076L43.2465 15.1974ZM45.0057 11.5864L42.0659 13.2762C41.6261 12.6512 41.1631 12.0493 40.677 11.4706L43.6632 9.75762C44.1261 10.3364 44.589 10.9382 45.0057 11.5864ZM6.32516 33.9012L3.38535 35.5909C3.06127 34.9197 2.76035 34.2252 2.48257 33.5076L5.46868 31.7947C5.72331 32.5123 6.00109 33.2299 6.32516 33.9012ZM1.23257 21.2159C1.3946 20.1974 1.60294 19.2021 1.90386 18.2299L6.62609 15.4983C6.07052 16.5864 5.60757 17.7206 5.23719 18.9012L1.23257 21.2159ZM9.63538 11.1465C12.5057 7.95207 16.3715 5.66041 20.7465 4.73449L27.2048 1.00763C26.464 0.938191 25.7465 0.915039 25.0057 0.915039C15.3066 0.915039 6.95016 6.63263 3.15386 14.8965L9.63538 11.1465ZM29.6354 4.82707C28.4548 4.5493 27.228 4.38726 25.978 4.34097L30.7002 1.60949C31.6956 1.86411 32.6909 2.16504 33.6399 2.51226L29.6354 4.82707ZM21.2094 48.7623C22.4363 48.9474 23.7094 49.0632 25.0057 49.0632C35.2604 49.0632 44.0335 42.628 47.5057 33.6002L42.0428 36.7483C38.6168 41.7252 33.0613 45.1049 26.6956 45.6141L21.2094 48.7623ZM44.103 32.929L48.4548 30.4057C48.6632 29.4567 48.8251 28.5076 48.9409 27.5123L45.1446 29.7114C44.8899 30.8456 44.5428 31.9104 44.103 32.929ZM22.3437 45.4983L17.9918 48.0215C17.0428 47.7438 16.1399 47.3965 15.2604 47.003L19.0566 44.804C20.1215 45.128 21.2094 45.3595 22.3437 45.4983ZM1.76497 31.3317C1.55664 30.5678 1.3946 29.804 1.25571 29.0169L4.42701 27.1882C4.51961 27.9983 4.63535 28.7854 4.82052 29.5724L1.76497 31.3317ZM39.0566 9.80396C38.478 9.24833 37.853 8.73911 37.2048 8.27615L40.3761 6.44745C40.978 6.95671 41.5566 7.48911 42.1122 8.04466L39.0566 9.80396ZM35.052 6.88726L38.3854 4.96597C37.6678 4.47985 36.927 4.04004 36.1631 3.64652L32.5751 5.72985C33.4316 6.05392 34.2418 6.44745 35.052 6.88726ZM0.977935 26.5632L4.31127 24.6419C4.33442 23.7159 4.40386 22.79 4.54275 21.9104L0.954792 23.9938C0.931641 24.3178 0.931641 24.6419 0.931641 24.9891C0.931641 25.5215 0.954792 26.054 0.977935 26.5632ZM10.7465 44.3873C11.4178 44.8965 12.1354 45.3595 12.853 45.7762L16.3251 43.7623C15.5149 43.3919 14.7511 42.9752 14.0104 42.4891L10.7465 44.3873ZM45.677 24.2252C45.677 24.4799 45.7001 24.7345 45.7001 24.9891C45.7001 25.6141 45.677 26.2391 45.6075 26.8641L49.0798 24.8502C49.0798 23.9938 49.0335 23.1604 48.9409 22.3271L45.677 24.2252ZM48.5473 19.9428L45.4456 21.7483C45.3298 20.9614 45.1446 20.1974 44.9363 19.4335L47.9456 17.6974C48.177 18.4382 48.3854 19.179 48.5473 19.9428ZM11.9733 41.054L8.87145 42.8595C8.29275 42.3271 7.73719 41.7947 7.20479 41.2159L10.214 39.4799C10.7928 40.0354 11.3715 40.5678 11.9733 41.054Z" fill="white"/>
<path d="M28.9882 22.3063C28.3864 24.6211 24.7984 23.4173 23.641 23.1396L24.6827 19.0192C25.8632 19.3201 29.6132 19.8756 28.9882 22.3063ZM28.317 28.9498C27.6688 31.4961 23.3632 30.1072 21.9744 29.7368L23.1549 25.1998C24.5206 25.5701 29.0114 26.2877 28.317 28.9498ZM33.0855 22.3756C33.4789 19.8756 31.5808 18.5331 28.9882 17.6072L29.8447 14.2275L27.7846 13.6951L26.9512 16.9822C26.4188 16.8432 25.8632 16.7044 25.3077 16.5887L26.141 13.2785L24.0808 12.7461L23.2244 16.1256C22.7846 16.0331 22.3447 15.9173 21.9049 15.8016L19.0577 15.084L18.5022 17.2831C18.5022 17.2831 20.0299 17.6535 19.9836 17.6535C20.5855 17.7229 21.0022 18.2553 20.9327 18.8572L19.9605 22.6998C20.0299 22.7229 20.0994 22.7461 20.1688 22.7692L19.9605 22.7229L18.5715 28.1165C18.4327 28.5099 18.016 28.7182 17.6225 28.6025C17.6456 28.6256 16.1179 28.209 16.1179 28.209L15.0762 30.5701L17.7614 31.2646L19.2429 31.6349L18.3632 35.0608L20.4234 35.5932L21.2799 32.2137C21.8123 32.3757 22.3679 32.5146 22.9234 32.6535L22.067 36.0331L24.1272 36.5655L25.0068 33.1396C28.5253 33.834 31.1642 33.5794 32.2984 30.4081C33.2012 27.8387 32.2753 26.3803 30.4465 25.3849C31.766 25.084 32.7846 24.2044 33.0855 22.3756Z" fill="white"/>
</svg>
