<svg width="50" height="50" viewBox="0 0 50 50" fill="none" xmlns="http://www.w3.org/2000/svg">
<path d="M25 50C38.8071 50 50 38.8071 50 25C50 11.1929 38.8071 0 25 0C11.1929 0 0 11.1929 0 25C0 38.8071 11.1929 50 25 50Z" fill="#35CC00"/>
<path d="M22.9084 32.3068V32.1257C22.9285 30.204 23.1297 28.6746 23.5121 27.5376C23.8944 26.4007 24.4377 25.4801 25.142 24.7757C25.8464 24.0714 26.6915 23.4225 27.6776 22.8288C28.2712 22.4666 28.8045 22.039 29.2773 21.546C29.7502 21.0429 30.1225 20.4644 30.3942 19.8104C30.6759 19.1564 30.8168 18.4319 30.8168 17.6371C30.8168 16.651 30.5853 15.7958 30.1225 15.0714C29.6597 14.3469 29.0409 13.7885 28.2662 13.3961C27.4914 13.0037 26.6312 12.8075 25.6854 12.8075C24.8603 12.8075 24.0655 12.9786 23.3008 13.3207C22.5361 13.6628 21.8972 14.2011 21.3841 14.9355C20.8709 15.67 20.5741 16.6309 20.4936 17.8182H16.6903C16.7708 16.1077 17.2135 14.6438 18.0185 13.4263C18.8335 12.2089 19.905 11.2782 21.2331 10.6342C22.5713 9.99029 24.0554 9.66832 25.6854 9.66832C27.4562 9.66832 28.9956 10.0205 30.3036 10.7248C31.6217 11.4291 32.6379 12.395 33.3523 13.6225C34.0767 14.85 34.4389 16.2486 34.4389 17.8182C34.4389 18.925 34.2679 19.9261 33.9258 20.8216C33.5938 21.717 33.1108 22.5169 32.4769 23.2212C31.8531 23.9255 31.0985 24.5494 30.2131 25.0927C29.3277 25.6461 28.6183 26.2296 28.0851 26.8434C27.5518 27.4471 27.1644 28.1665 26.9229 29.0016C26.6815 29.8367 26.5507 30.8781 26.5305 32.1257V32.3068H22.9084ZM24.8402 41.2415C24.0956 41.2415 23.4567 40.9748 22.9235 40.4416C22.3902 39.9083 22.1236 39.2694 22.1236 38.5249C22.1236 37.7803 22.3902 37.1414 22.9235 36.6081C23.4567 36.0749 24.0956 35.8082 24.8402 35.8082C25.5848 35.8082 26.2237 36.0749 26.7569 36.6081C27.2902 37.1414 27.5568 37.7803 27.5568 38.5249C27.5568 39.0179 27.431 39.4706 27.1795 39.8832C26.938 40.2957 26.611 40.6277 26.1985 40.8793C25.796 41.1207 25.3433 41.2415 24.8402 41.2415Z" fill="white"/>
</svg>
