<svg width="50" height="50" viewBox="0 0 50 50" fill="none" xmlns="http://www.w3.org/2000/svg">
<path d="M25 50C38.8071 50 50 38.8071 50 25C50 11.1929 38.8071 0 25 0C11.1929 0 0 11.1929 0 25C0 38.8071 11.1929 50 25 50Z" fill="#35CC00"/>
<path d="M31.7297 27.2961C31.7297 23.7776 29.6232 22.5738 25.4102 22.0878C22.4009 21.6943 21.7992 20.8841 21.7992 19.4721C21.7992 18.06 22.7945 17.1572 24.8084 17.1572C26.614 17.1572 27.6093 17.7591 28.1185 19.2637C28.2111 19.5646 28.5121 19.7729 28.813 19.7729H30.4102C30.8037 19.7729 31.1047 19.4721 31.1047 19.0785V18.9859C30.7111 16.7869 28.9056 15.0738 26.5908 14.8655V12.4581C26.5908 12.0646 26.2899 11.7637 25.7806 11.6479H24.3223C23.9287 11.6479 23.6278 11.9488 23.5121 12.4581V14.7729C20.5028 15.1665 18.6047 17.1804 18.6047 19.6804C18.6047 22.9905 20.6185 24.2869 24.8316 24.7961C27.6325 25.3054 28.5352 25.9072 28.5352 27.5045C28.5352 29.1017 27.1232 30.2128 25.225 30.2128C22.6093 30.2128 21.7066 29.1017 21.4056 27.5971C21.313 27.2035 21.0121 26.9952 20.7111 26.9952H18.9982C18.6047 26.9952 18.3037 27.2961 18.3037 27.6896V27.7822C18.6973 30.2822 20.3176 32.0878 23.6278 32.5971V35.0045C23.6278 35.3979 23.9287 35.6988 24.438 35.8146H25.9426C26.3361 35.8146 26.6371 35.5137 26.7528 35.0045V32.5971C29.739 32.1109 31.7297 30.0045 31.7297 27.2961Z" fill="white"/>
<path d="M19.97 37.8349C12.1459 35.034 8.14126 26.3071 11.0347 18.5756C12.5394 14.3626 15.8496 11.1451 19.97 9.64041C20.3635 9.43211 20.5718 9.13122 20.5718 8.64506V7.233C20.5718 6.83952 20.3635 6.53859 19.97 6.42285C19.8773 6.42285 19.669 6.42285 19.5764 6.51545C10.0394 9.5247 4.83108 19.6404 7.84034 29.1775C9.64591 34.8025 13.9514 39.108 19.5764 40.9136C19.97 41.1219 20.3866 40.9136 20.4792 40.5201C20.5718 40.4275 20.5718 40.3118 20.5718 40.1266V38.7376C20.5718 38.4368 20.2709 38.0201 19.97 37.8349ZM30.6181 6.53859C30.2246 6.33026 29.808 6.53859 29.7154 6.93211C29.6228 7.02471 29.6228 7.14045 29.6228 7.32559V8.73765C29.6228 9.13122 29.9237 9.54783 30.2246 9.733C38.0487 12.534 42.0533 21.2609 39.1597 28.9923C37.6552 33.2052 34.345 36.4228 30.2246 37.9275C29.8311 38.1359 29.6228 38.4368 29.6228 38.9228V40.3349C29.6228 40.7284 29.8311 41.0293 30.2246 41.1451C30.3172 41.1451 30.5255 41.1451 30.6181 41.0525C40.1552 38.0433 45.3635 27.9275 42.3542 18.3904C40.5255 12.6497 36.1273 8.34416 30.6181 6.53859Z" fill="white"/>
</svg>
