<svg width="56" height="57" viewBox="0 0 56 57" fill="none" xmlns="http://www.w3.org/2000/svg">
<path d="M28 57C43.464 57 56 44.464 56 29C56 13.536 43.464 1 28 1C12.536 1 0 13.536 0 29C0 44.464 12.536 57 28 57Z" fill="#35CC00"/>
<path d="M28.0001 54.2482C42.9334 54.2482 54.963 42.2186 54.963 27.2852C54.963 12.3519 42.9334 0.322266 28.0001 0.322266C13.0667 0.322266 1.03711 12.3519 1.03711 27.2852C1.03711 42.2186 13.0667 54.2482 28.0001 54.2482Z" fill="#2775CA"/>
<path d="M35.5185 31.563C35.5185 27.6223 33.1592 26.2741 28.4407 25.7297C25.0703 25.289 24.3963 24.3816 24.3963 22.8001C24.3963 21.2186 25.5111 20.2075 27.7666 20.2075C29.7889 20.2075 30.9037 20.8816 31.474 22.5667C31.5777 22.9038 31.9148 23.1371 32.2518 23.1371H34.0407C34.4814 23.1371 34.8185 22.8001 34.8185 22.3593V22.2556C34.3777 19.7927 32.3555 17.8741 29.7629 17.6408V14.9445C29.7629 14.5038 29.4259 14.1667 28.8555 14.0371H27.2222C26.7814 14.0371 26.4444 14.3741 26.3148 14.9445V17.5371C22.9444 17.9779 20.8185 20.2334 20.8185 23.0334C20.8185 26.7408 23.074 28.1927 27.7926 28.763C30.9296 29.3334 31.9407 30.0075 31.9407 31.7964C31.9407 33.5853 30.3592 34.8297 28.2333 34.8297C25.3037 34.8297 24.2926 33.5853 23.9555 31.9001C23.8518 31.4593 23.5148 31.226 23.1777 31.226H21.2592C20.8185 31.226 20.4814 31.563 20.4814 32.0038V32.1075C20.9222 34.9075 22.737 36.9297 26.4444 37.5001V40.1964C26.4444 40.6371 26.7814 40.9741 27.3518 41.1038H29.037C29.4777 41.1038 29.8148 40.7667 29.9444 40.1964V37.5001C33.2889 36.9556 35.5185 34.5964 35.5185 31.563Z" fill="white"/>
<path d="M22.3745 43.3592C13.6115 40.2222 9.1263 30.4481 12.367 21.7888C14.0522 17.0703 17.7596 13.4666 22.3745 11.7814C22.8152 11.5481 23.0485 11.2111 23.0485 10.6666V9.0851C23.0485 8.6444 22.8152 8.30736 22.3745 8.17773C22.2707 8.17773 22.0374 8.17773 21.9337 8.28144C11.2522 11.6518 5.4189 22.9814 8.78927 33.6629C10.8115 39.9629 15.6337 44.7851 21.9337 46.8074C22.3745 47.0407 22.8411 46.8074 22.9448 46.3666C23.0485 46.2629 23.0485 46.1333 23.0485 45.9259V44.3703C23.0485 44.0333 22.7115 43.5666 22.3745 43.3592ZM34.3004 8.30736C33.8596 8.07403 33.393 8.30737 33.2893 8.74811C33.1856 8.85182 33.1856 8.98144 33.1856 9.1888V10.7703C33.1856 11.2111 33.5226 11.6777 33.8596 11.8851C42.6226 15.0222 47.1078 24.7963 43.867 33.4555C42.1819 38.174 38.4745 41.7777 33.8596 43.4629C33.4189 43.6963 33.1856 44.0333 33.1856 44.5777V46.1592C33.1856 46.6 33.4189 46.937 33.8596 47.0666C33.9633 47.0666 34.1967 47.0666 34.3004 46.9629C44.9819 43.5926 50.8152 32.2629 47.4448 21.5814C45.3967 15.1518 40.4707 10.3296 34.3004 8.30736Z" fill="white"/>
</svg>
