<svg width="56" height="59" viewBox="0 0 56 59" fill="none" xmlns="http://www.w3.org/2000/svg">
<path d="M28 59C43.464 59 56 46.464 56 31C56 15.536 43.464 3 28 3C12.536 3 0 15.536 0 31C0 46.464 12.536 59 28 59Z" fill="#35CC00"/>
<path d="M28 0C43.464 0 56 12.536 56 28C56 43.464 43.464 56 28 56C12.536 56 0 43.464 0 28C0 12.536 12.536 0 28 0Z" fill="#627EEA"/>
<g opacity="0.602005">
<path d="M28.8701 7V22.5225L41.9899 28.385L28.8701 7Z" fill="white"/>
</g>
<path d="M28.8715 7L15.75 28.385L28.8715 22.5225V7Z" fill="white"/>
<g opacity="0.602005">
<path d="M28.8701 38.4441V48.9914L41.9986 30.8281L28.8701 38.4441Z" fill="white"/>
</g>
<path d="M28.8715 48.9914V38.4424L15.75 30.8281L28.8715 48.9914Z" fill="white"/>
<g opacity="0.199997">
<path d="M28.8701 36.0026L41.9899 28.3849L28.8701 22.5259V36.0026Z" fill="white"/>
</g>
<g opacity="0.602005">
<path d="M15.75 28.3849L28.8715 36.0026V22.5259L15.75 28.3849Z" fill="white"/>
</g>
</svg>
