<svg width="50" height="50" viewBox="0 0 50 50" fill="none" xmlns="http://www.w3.org/2000/svg">
<path d="M25 50C38.8071 50 50 38.8071 50 25C50 11.1929 38.8071 0 25 0C11.1929 0 0 11.1929 0 25C0 38.8071 11.1929 50 25 50Z" fill="#35CC00"/>
<g opacity="0.602005">
<path d="M25.7578 3.57764V17.437L37.4719 22.6714L25.7578 3.57764Z" fill="white"/>
</g>
<path d="M25.7596 3.57764L14.0439 22.6714L25.7596 17.437V3.57764Z" fill="white"/>
<g opacity="0.602005">
<path d="M25.7578 31.6594V41.0766L37.4797 24.8594L25.7578 31.6594Z" fill="white"/>
</g>
<path d="M25.7596 41.0766V31.6579L14.0439 24.8594L25.7596 41.0766Z" fill="white"/>
<g opacity="0.199997">
<path d="M25.7578 29.4708L37.4719 22.6692L25.7578 17.438V29.4708Z" fill="white"/>
</g>
<g opacity="0.602005">
<path d="M14.0439 22.6692L25.7596 29.4708V17.438L14.0439 22.6692Z" fill="white"/>
</g>
</svg>
