<?xml version="1.0" encoding="utf-8"?>
<!-- Generator: Adobe Illustrator 25.0.1, SVG Export Plug-In . SVG Version: 6.00 Build 0)  -->
<svg version="1.1" id="Layer_1" xmlns="http://www.w3.org/2000/svg" xmlns:xlink="http://www.w3.org/1999/xlink" x="0px" y="0px"
	 viewBox="0 0 216 216" style="enable-background:new 0 0 216 216;" xml:space="preserve">
<style type="text/css">
	.st0{fill:#F5AC37;}
	.st1{fill:#FEFEFD;}
</style>
<g id="Layer_x0020_1">
	<path class="st0" d="M108,3.9c57.5,0,104.1,46.6,104.1,104.1c0,57.5-46.6,104.1-104.1,104.1C50.5,212.1,3.9,165.5,3.9,108
		C3.9,50.5,50.5,3.9,108,3.9z"/>
	<path class="st1" d="M111.8,115.4h39.6c0.8,0,1.2,0,1.3-1.1c0.3-4,0.3-8.1,0-12.1c0-0.8-0.4-1.1-1.2-1.1H72.7c-1,0-1.2,0.3-1.2,1.2
		v11.6c0,1.5,0,1.5,1.6,1.5C73.1,115.4,111.8,115.4,111.8,115.4z M148.3,87.5c0.1-0.3,0.1-0.6,0-0.9c-0.7-1.4-1.4-2.8-2.4-4.1
		c-1.4-2.2-3-4.2-4.8-6.1c-0.9-1.1-1.9-2.1-3-2.9c-5.6-4.8-12.3-8.2-19.5-9.9c-3.6-0.8-7.3-1.2-11.1-1.2H72.6c-1,0-1.1,0.4-1.1,1.2
		v23.1c0,1,0,1.2,1.2,1.2h75.1c0,0,0.7-0.1,0.8-0.5H148.3L148.3,87.5z M148.3,128.9c-1.1-0.1-2.2-0.1-3.3,0H72.8c-1,0-1.3,0-1.3,1.3
		v22.6c0,1,0,1.3,1.3,1.3h33.3c1.6,0.1,3.2,0,4.7-0.3c4.8-0.3,9.6-1.4,14.1-3.1c1.6-0.6,3.2-1.3,4.7-2.2h0.5
		c7.8-4.1,14.2-10.4,18.2-18.3C148.3,130.1,148.8,129.2,148.3,128.9L148.3,128.9z M58.4,165.8v-0.4v-15.2v-5.1v-15.3c0-0.8,0-1-1-1
		H43.3c-0.8,0-1.1,0-1.1-1v-12.4h15.1c0.8,0,1.2,0,1.2-1.1v-12.2c0-0.8,0-1-1-1H43.3c-0.8,0-1.1,0-1.1-1V88.6c0-0.7,0-0.9,1-0.9h14
		c1,0,1.2,0,1.2-1.2V51.4c0-1,0-1.3,1.3-1.3h48.8c3.5,0.1,7.1,0.5,10.5,1.2c7.2,1.3,14.1,3.9,20.4,7.5c4.2,2.5,8,5.4,11.5,8.9
		c2.6,2.7,4.9,5.6,7,8.7c2,3.1,3.7,6.5,5.1,10c0.2,0.9,1,1.5,1.9,1.4h11.6c1.5,0,1.5,0,1.6,1.4v10.7c0,1-0.4,1.3-1.4,1.3h-9
		c-0.9,0-1.2,0-1.1,1.2c0.4,4,0.4,7.9,0,11.9c0,1.1,0,1.2,1.2,1.2h10.3c0.5,0.6,0,1.2,0,1.8c0.1,0.8,0.1,1.5,0,2.3v7.9
		c0,1.1-0.3,1.4-1.3,1.4h-12.3c-0.9-0.2-1.7,0.4-1.9,1.2c-2.9,7.6-7.6,14.4-13.7,19.9c-2.2,2-4.5,3.9-7,5.6
		c-2.6,1.5-5.1,3.1-7.8,4.3c-4.9,2.2-10.1,3.8-15.4,4.9c-5,0.9-10.1,1.3-15.2,1.2L58.4,165.8L58.4,165.8L58.4,165.8z"/>
</g>
</svg>
