<?xml version="1.0" encoding="utf-8"?>
<!-- Generator: Adobe Illustrator 25.0.1, SVG Export Plug-In . SVG Version: 6.00 Build 0)  -->
<svg version="1.1" id="Layer_1" xmlns="http://www.w3.org/2000/svg" xmlns:xlink="http://www.w3.org/1999/xlink" x="0px" y="0px"
	 viewBox="0 0 216 216" style="enable-background:new 0 0 216 216;" xml:space="preserve">
<style type="text/css">
	.st0{fill-rule:evenodd;clip-rule:evenodd;fill:#B3BDC7;}
	.st1{fill:#F7931A;}
	.st2{fill:#FFFFFF;}
</style>
<path class="st0" d="M19.3,162.4c1.7,2.8,3.5,5.5,5.5,8.1l12.8-7.4c-2-2.6-3.9-5.2-5.6-8L19.3,162.4z M186.8,65.7
	c1.5,2.9,2.9,5.8,4.2,8.9l12.8-7.4c-1.3-3-2.7-5.9-4.3-8.8L186.8,65.7z M194.4,50.1l-12.7,7.3c-1.9-2.7-3.9-5.3-6-7.8l12.9-7.4
	C190.6,44.7,192.6,47.3,194.4,50.1z M27.3,146.5l-12.7,7.3c-1.4-2.9-2.7-5.9-3.9-9l12.9-7.4C24.7,140.5,25.9,143.6,27.3,146.5z
	 M5.3,91.7C6,87.3,6.9,83,8.2,78.8L28.6,67c-2.4,4.7-4.4,9.6-6,14.7L5.3,91.7z M41.6,48.2c12.4-13.8,29.1-23.7,48-27.7l27.9-16.1
	C114.3,4.1,111.2,4,108,4C66.1,4,30,28.7,13.6,64.4L41.6,48.2z M128,20.9c-5.1-1.2-10.4-1.9-15.8-2.1l20.4-11.8
	c4.3,1.1,8.6,2.4,12.7,3.9L128,20.9z M91.6,210.7c5.3,0.8,10.8,1.3,16.4,1.3c44.3,0,82.2-27.8,97.2-66.8l-23.6,13.6
	c-14.8,21.5-38.8,36.1-66.3,38.3L91.6,210.7z M190.5,142.3l18.8-10.9c0.9-4.1,1.6-8.2,2.1-12.5l-16.4,9.5
	C193.9,133.3,192.4,137.9,190.5,142.3z M96.5,196.6l-18.8,10.9c-4.1-1.2-8-2.7-11.8-4.4l16.4-9.5C86.9,195,91.6,196,96.5,196.6z
	 M7.6,135.4c-0.9-3.3-1.6-6.6-2.2-10l13.7-7.9c0.4,3.5,0.9,6.9,1.7,10.3L7.6,135.4z M168.7,42.4c-2.5-2.4-5.2-4.6-8-6.6l13.7-7.9
	c2.6,2.2,5.1,4.5,7.5,6.9L168.7,42.4z M151.4,29.8l14.4-8.3c-3.1-2.1-6.3-4-9.6-5.7l-15.5,9C144.4,26.2,147.9,27.9,151.4,29.8z
	 M4.2,114.8l14.4-8.3c0.1-4,0.4-8,1-11.8l-15.5,9C4,105.1,4,106.5,4,108C4,110.3,4.1,112.6,4.2,114.8z M46.4,191.8
	c2.9,2.2,6,4.2,9.1,6l15-8.7c-3.5-1.6-6.8-3.4-10-5.5L46.4,191.8z M197.3,104.7c0,1.1,0.1,2.2,0.1,3.3c0,2.7-0.1,5.4-0.4,8.1l15-8.7
	c0-3.7-0.2-7.3-0.6-10.9L197.3,104.7z M209.7,86.2L196.3,94c-0.5-3.4-1.3-6.7-2.2-10l13-7.5C208.1,79.7,209,82.9,209.7,86.2z
	 M51.7,177.4l-13.4,7.8c-2.5-2.3-4.9-4.6-7.2-7.1l13-7.5C46.6,173,49.1,175.3,51.7,177.4z"/>
<circle class="st1" cx="108" cy="108" r="81.2"/>
<path class="st2" d="M125.2,96.4c-2.6,10-18.1,4.8-23.1,3.6l4.5-17.8C111.7,83.5,127.9,85.9,125.2,96.4z M122.3,125.1
	c-2.8,11-21.4,5-27.4,3.4l5.1-19.6C105.9,110.5,125.3,113.6,122.3,125.1L122.3,125.1z M142.9,96.7c1.7-10.8-6.5-16.6-17.7-20.6
	l3.7-14.6l-8.9-2.3l-3.6,14.2c-2.3-0.6-4.7-1.2-7.1-1.7l3.6-14.3l-8.9-2.3l-3.7,14.6c-1.9-0.4-3.8-0.9-5.7-1.4l-12.3-3.1l-2.4,9.5
	c0,0,6.6,1.6,6.4,1.6c2.6,0.3,4.4,2.6,4.1,5.2l-4.2,16.6c0.3,0.1,0.6,0.2,0.9,0.3l-0.9-0.2l-6,23.3c-0.6,1.7-2.4,2.6-4.1,2.1
	c0.1,0.1-6.5-1.7-6.5-1.7l-4.5,10.2l11.6,3l6.4,1.6l-3.8,14.8l8.9,2.3l3.7-14.6c2.3,0.7,4.7,1.3,7.1,1.9l-3.7,14.6l8.9,2.3l3.8-14.8
	c15.2,3,26.6,1.9,31.5-11.8c3.9-11.1-0.1-17.4-8-21.7C137.2,108.4,141.6,104.6,142.9,96.7L142.9,96.7z"/>
</svg>
