<svg width="54" height="54" viewBox="0 0 54 54" fill="none" xmlns="http://www.w3.org/2000/svg">
<path fill-rule="evenodd" clip-rule="evenodd" d="M4.00378 41.1038C4.44452 41.8297 4.91118 42.5297 5.4297 43.2038L8.74822 41.2853C8.2297 40.6112 7.73711 39.9371 7.29637 39.2112L4.00378 41.1038ZM47.4297 16.0334C47.8186 16.7853 48.1816 17.5371 48.5186 18.3408L51.8371 16.4223C51.5001 15.6445 51.1371 14.8927 50.7223 14.1408L47.4297 16.0334ZM49.4001 11.989L46.1075 13.8816C45.6149 13.1816 45.0964 12.5075 44.5519 11.8593L47.8964 9.9408C48.4149 10.589 48.9334 11.263 49.4001 11.989ZM6.07785 36.9816L2.78526 38.8741C2.42229 38.1223 2.08526 37.3445 1.77415 36.5408L5.11859 34.6223C5.40378 35.426 5.71489 36.2297 6.07785 36.9816ZM0.374149 22.7741C0.555629 21.6334 0.788959 20.5186 1.126 19.4297L6.41489 16.3704C5.79266 17.589 5.27415 18.8593 4.85933 20.1816L0.374149 22.7741ZM9.7853 11.4964C13.0001 7.91859 17.3297 5.35192 22.2297 4.31489L29.463 0.140809C28.6334 0.0630394 27.8297 0.0371094 27.0001 0.0371094C16.1371 0.0371094 6.77785 6.44081 2.526 15.6964L9.7853 11.4964ZM32.1853 4.41859C30.863 4.10748 29.489 3.926 28.089 3.87415L33.3779 0.814889C34.4927 1.10007 35.6075 1.43711 36.6704 1.826L32.1853 4.41859ZM22.7482 53.626C24.1223 53.8334 25.5482 53.963 27.0001 53.963C38.4853 53.963 48.3112 46.7556 52.2001 36.6445L46.0816 40.1704C42.2445 45.7445 36.0223 49.5297 28.8927 50.1001L22.7482 53.626ZM48.389 35.8927L53.263 33.0667C53.4964 32.0038 53.6778 30.9408 53.8075 29.826L49.5556 32.289C49.2704 33.5593 48.8816 34.7519 48.389 35.8927ZM24.0186 49.9704L19.1445 52.7964C18.0816 52.4853 17.0704 52.0964 16.0853 51.6556L20.3371 49.1927C21.5297 49.5556 22.7482 49.8149 24.0186 49.9704ZM0.970439 34.1038C0.737109 33.2482 0.555629 32.3927 0.400069 31.5112L3.95192 29.463C4.05563 30.3704 4.18526 31.2519 4.39266 32.1334L0.970439 34.1038ZM42.7371 9.9927C42.089 9.3704 41.389 8.80007 40.663 8.28155L44.2149 6.23341C44.889 6.80378 45.5371 7.40007 46.1593 8.02229L42.7371 9.9927ZM38.2519 6.726L41.9853 4.57415C41.1816 4.0297 40.3519 3.53711 39.4964 3.09637L35.4778 5.4297C36.4371 5.79266 37.3445 6.23341 38.2519 6.726ZM0.0889595 28.763L3.82229 26.6112C3.84822 25.5741 3.926 24.5371 4.08155 23.5519L0.0630394 25.8853C0.0371094 26.2482 0.0371094 26.6112 0.0371094 27.0001C0.0371094 27.5964 0.0630395 28.1927 0.0889595 28.763ZM11.0297 48.726C11.7816 49.2964 12.5853 49.8149 13.389 50.2816L17.2778 48.026C16.3704 47.6112 15.5149 47.1445 14.6853 46.6001L11.0297 48.726ZM50.1519 26.1445C50.1519 26.4297 50.1778 26.7149 50.1778 27.0001C50.1778 27.7001 50.1519 28.4001 50.0741 29.1001L53.963 26.8445C53.963 25.8853 53.9112 24.9519 53.8075 24.0186L50.1519 26.1445ZM53.3667 21.3482L49.8927 23.3704C49.763 22.489 49.5556 21.6334 49.3223 20.7778L52.6927 18.8334C52.9519 19.663 53.1853 20.4927 53.3667 21.3482ZM12.4038 44.9927L8.9297 47.0149C8.28155 46.4186 7.65933 45.8223 7.06304 45.1741L10.4334 43.2297C11.0816 43.8519 11.7297 44.4482 12.4038 44.9927Z" fill="black"/>
<path d="M27.0001 48.0519C38.6267 48.0519 48.0519 38.6267 48.0519 27.0001C48.0519 15.3735 38.6267 5.94824 27.0001 5.94824C15.3735 5.94824 5.94824 15.3735 5.94824 27.0001C5.94824 38.6267 15.3735 48.0519 27.0001 48.0519Z" fill="#F7931A"/>
<path d="M31.4594 23.9926C30.7853 26.5852 26.7668 25.237 25.4705 24.9259L26.6372 20.3111C27.9594 20.6481 32.1594 21.2703 31.4594 23.9926ZM30.7076 31.4333C29.9816 34.2852 25.1594 32.7296 23.6039 32.3148L24.9261 27.2333C26.4557 27.6481 31.4853 28.4518 30.7076 31.4333ZM36.0483 24.0703C36.489 21.2703 34.3631 19.7666 31.4594 18.7296L32.4187 14.9444L30.1113 14.3481L29.1779 18.0296C28.5816 17.874 27.9594 17.7185 27.3372 17.5889L28.2705 13.8815L25.9631 13.2852L25.0039 17.0703C24.5113 16.9666 24.0187 16.837 23.5261 16.7074L20.3372 15.9037L19.715 18.3666C19.715 18.3666 21.4261 18.7815 21.3742 18.7815C22.0483 18.8592 22.515 19.4555 22.4372 20.1296L21.3483 24.4333C21.4261 24.4592 21.5039 24.4852 21.5816 24.5111L21.3483 24.4592L19.7927 30.5C19.6372 30.9407 19.1705 31.174 18.7298 31.0444C18.7557 31.0703 17.0446 30.6037 17.0446 30.6037L15.8779 33.2481L18.8853 34.0259L20.5446 34.4407L19.5594 38.2777L21.8668 38.874L22.8261 35.0889C23.4224 35.2703 24.0446 35.4259 24.6668 35.5815L23.7076 39.3666L26.015 39.9629L27.0002 36.1259C30.9409 36.9037 33.8965 36.6185 35.1668 33.0666C36.1779 30.1889 35.1409 28.5555 33.0927 27.4407C34.5705 27.1037 35.7113 26.1185 36.0483 24.0703Z" fill="white"/>
</svg>
