<svg width="54" height="55" viewBox="0 0 54 55" fill="none" xmlns="http://www.w3.org/2000/svg">
<path d="M27.0001 54.2482C41.9334 54.2482 53.963 42.2186 53.963 27.2852C53.963 12.3519 41.9334 0.322266 27.0001 0.322266C12.0667 0.322266 0.0371094 12.3519 0.0371094 27.2852C0.0371094 42.2186 12.0667 54.2482 27.0001 54.2482Z" fill="#2775CA"/>
<path d="M34.5185 31.563C34.5185 27.6223 32.1592 26.2741 27.4407 25.7297C24.0703 25.289 23.3963 24.3816 23.3963 22.8001C23.3963 21.2186 24.5111 20.2075 26.7666 20.2075C28.7889 20.2075 29.9037 20.8816 30.474 22.5667C30.5777 22.9038 30.9148 23.1371 31.2518 23.1371H33.0407C33.4814 23.1371 33.8185 22.8001 33.8185 22.3593V22.2556C33.3777 19.7927 31.3555 17.8741 28.7629 17.6408V14.9445C28.7629 14.5038 28.4259 14.1667 27.8555 14.0371H26.2222C25.7814 14.0371 25.4444 14.3741 25.3148 14.9445V17.5371C21.9444 17.9779 19.8185 20.2334 19.8185 23.0334C19.8185 26.7408 22.074 28.1927 26.7926 28.763C29.9296 29.3334 30.9407 30.0075 30.9407 31.7964C30.9407 33.5853 29.3592 34.8297 27.2333 34.8297C24.3037 34.8297 23.2926 33.5853 22.9555 31.9001C22.8518 31.4593 22.5148 31.226 22.1777 31.226H20.2592C19.8185 31.226 19.4814 31.563 19.4814 32.0038V32.1075C19.9222 34.9075 21.737 36.9297 25.4444 37.5001V40.1964C25.4444 40.6371 25.7814 40.9741 26.3518 41.1038H28.037C28.4777 41.1038 28.8148 40.7667 28.9444 40.1964V37.5001C32.2889 36.9556 34.5185 34.5964 34.5185 31.563Z" fill="white"/>
<path d="M21.3745 43.3592C12.6115 40.2222 8.1263 30.4481 11.367 21.7888C13.0522 17.0703 16.7596 13.4666 21.3745 11.7814C21.8152 11.5481 22.0485 11.2111 22.0485 10.6666V9.0851C22.0485 8.6444 21.8152 8.30736 21.3745 8.17773C21.2707 8.17773 21.0374 8.17773 20.9337 8.28144C10.2522 11.6518 4.4189 22.9814 7.78927 33.6629C9.8115 39.9629 14.6337 44.7851 20.9337 46.8074C21.3745 47.0407 21.8411 46.8074 21.9448 46.3666C22.0485 46.2629 22.0485 46.1333 22.0485 45.9259V44.3703C22.0485 44.0333 21.7115 43.5666 21.3745 43.3592ZM33.3004 8.30736C32.8596 8.07403 32.393 8.30737 32.2893 8.74811C32.1856 8.85182 32.1856 8.98144 32.1856 9.1888V10.7703C32.1856 11.2111 32.5226 11.6777 32.8596 11.8851C41.6226 15.0222 46.1078 24.7963 42.867 33.4555C41.1819 38.174 37.4745 41.7777 32.8596 43.4629C32.4189 43.6963 32.1856 44.0333 32.1856 44.5777V46.1592C32.1856 46.6 32.4189 46.937 32.8596 47.0666C32.9633 47.0666 33.1967 47.0666 33.3004 46.9629C43.9819 43.5926 49.8152 32.2629 46.4448 21.5814C44.3967 15.1518 39.4707 10.3296 33.3004 8.30736Z" fill="white"/>
</svg>
