<?xml version="1.0" encoding="utf-8"?>
<!-- Generator: Adobe Illustrator 25.0.1, SVG Export Plug-In . SVG Version: 6.00 Build 0)  -->
<svg version="1.1" id="Layer_1" xmlns="http://www.w3.org/2000/svg" xmlns:xlink="http://www.w3.org/1999/xlink" x="0px" y="0px"
	 viewBox="0 0 216 216" style="enable-background:new 0 0 216 216;" xml:space="preserve">
<style type="text/css">
	.st0{fill:#2775CA;}
	.st1{fill:#FFFFFF;}
</style>
<path class="st0" d="M108,213.1c57.6,0,104-46.4,104-104s-46.4-104-104-104S4,51.5,4,109.1S50.4,213.1,108,213.1z"/>
<path class="st1" d="M137,125.6c0-15.2-9.1-20.4-27.3-22.5c-13-1.7-15.6-5.2-15.6-11.3c0-6.1,4.3-10,13-10c7.8,0,12.1,2.6,14.3,9.1
	c0.4,1.3,1.7,2.2,3,2.2h6.9c1.7,0,3-1.3,3-3v-0.4c-1.7-9.5-9.5-16.9-19.5-17.8V61.5c0-1.7-1.3-3-3.5-3.5H105c-1.7,0-3,1.3-3.5,3.5
	v10c-13,1.7-21.2,10.4-21.2,21.2c0,14.3,8.7,19.9,26.9,22.1c12.1,2.2,16,4.8,16,11.7c0,6.9-6.1,11.7-14.3,11.7
	c-11.3,0-15.2-4.8-16.5-11.3c-0.4-1.7-1.7-2.6-3-2.6H82c-1.7,0-3,1.3-3,3v0.4c1.7,10.8,8.7,18.6,23,20.8v10.4c0,1.7,1.3,3,3.5,3.5
	h6.5c1.7,0,3-1.3,3.5-3.5v-10.4C128.4,146.4,137,137.3,137,125.6L137,125.6z"/>
<path class="st1" d="M86.3,171.1c-33.8-12.1-51.1-49.8-38.6-83.2c6.5-18.2,20.8-32.1,38.6-38.6c1.7-0.9,2.6-2.2,2.6-4.3v-6.1
	c0-1.7-0.9-3-2.6-3.5c-0.4,0-1.3,0-1.7,0.4c-41.2,13-63.7,56.7-50.7,97.9c7.8,24.3,26.4,42.9,50.7,50.7c1.7,0.9,3.5,0,3.9-1.7
	c0.4-0.4,0.4-0.9,0.4-1.7V175C88.9,173.7,87.6,171.9,86.3,171.1z M132.3,35.9c-1.7-0.9-3.5,0-3.9,1.7c-0.4,0.4-0.4,0.9-0.4,1.7v6.1
	c0,1.7,1.3,3.5,2.6,4.3c33.8,12.1,51.1,49.8,38.6,83.2c-6.5,18.2-20.8,32.1-38.6,38.6c-1.7,0.9-2.6,2.2-2.6,4.3v6.1
	c0,1.7,0.9,3,2.6,3.5c0.4,0,1.3,0,1.7-0.4c41.2-13,63.7-56.7,50.7-97.9C175.1,62.3,156.1,43.7,132.3,35.9L132.3,35.9z"/>
</svg>
