<?xml version="1.0" encoding="utf-8"?>
<!-- Generator: Adobe Illustrator 25.0.1, SVG Export Plug-In . SVG Version: 6.00 Build 0)  -->
<svg version="1.1" id="Layer_1" xmlns="http://www.w3.org/2000/svg" xmlns:xlink="http://www.w3.org/1999/xlink" x="0px" y="0px"
	 viewBox="0 0 216 216" style="enable-background:new 0 0 216 216;" xml:space="preserve">
<style type="text/css">
	.st0{fill:#FFFFFF;}
	.st1{fill-rule:evenodd;clip-rule:evenodd;}
	.st2{fill:#EC1C79;}
</style>
<g id="weth">
	<g>
		<path id="Oval_2_" d="M109.2,211C51.6,211,5,164.4,5,106.8S51.6,2.7,109.2,2.7s103.8,46.6,103.8,104.1S166.3,211,109.2,211z
			 M109.2,201.5c52.1,0,94.7-42.2,94.7-94.7s-42.6-94.7-94.7-94.7s-94.7,42.2-94.7,94.7S56.7,201.5,109.2,201.5z"/>
		<path id="Path_1_" class="st0" d="M109.2,201.5c52.1,0,94.7-42.2,94.7-94.7s-42.6-94.7-94.7-94.7s-94.7,42.2-94.7,94.7
			S56.7,201.5,109.2,201.5z"/>
		<path id="WETH" class="st1" d="M38.2,126.1L25.8,88.6h10.9l6.6,21.5l7.3-21.8h9.1l7.3,21.8l6.6-21.5h10.9L72,126.5h-9.1L55.3,105
			l-7.6,21.5h-9.5C38.2,126.5,38.2,126.1,38.2,126.1z M88,125.8V88.6h30.2v8.7H98.6v5.8h17.8v8H98.6v5.8h20v8.7H88z M132.8,125.8
			V97.4h-11.3v-8.7h32.8v9.1H143v28.4L132.8,125.8L132.8,125.8z M159,125.8V88.6h10.2v13.8h13.5V88.6h10.2v37.5h-10.2v-14.2h-13.5
			v14.2L159,125.8L159,125.8z"/>
	</g>
</g>
<circle class="st2" cx="109.2" cy="107.2" r="96.5"/>
<polygon class="st0" points="25.8,88.6 36.7,88.6 43.3,110.1 50.5,88.3 59.3,88.3 66.6,110.1 73.1,88.6 84,88.6 71.3,126.1 
	62.2,126.1 54.5,106.8 47.3,126.1 38.2,126.1 "/>
<polygon class="st0" points="88,88.6 88,125.8 118.3,125.8 118.3,117 98.2,117 98.2,111.2 116.1,111.2 116.1,102.8 98.2,102.8 
	98.2,97.4 118.3,97.4 118.3,88.6 "/>
<polygon class="st0" points="143,125.8 132.8,125.8 132.8,97.7 121.5,97.7 121.5,88.6 154.3,88.6 154.3,97.7 143,97.7 "/>
<polygon class="st0" points="159,125.8 159,88.6 169.2,88.6 169.2,102.5 182.7,102.5 182.7,88.6 192.9,88.6 192.9,125.8 
	183.8,125.8 183.8,110.1 169.6,110.1 169.2,125.8 "/>
</svg>
