<svg width="38" height="38" viewBox="0 0 38 38" fill="none" xmlns="http://www.w3.org/2000/svg">
<path d="M30.2812 24.9375H25.5312C25.2033 24.9375 24.9375 25.2033 24.9375 25.5312V30.2812C24.9375 30.6092 25.2033 30.875 25.5312 30.875H30.2812C30.6092 30.875 30.875 30.6092 30.875 30.2812V25.5312C30.875 25.2033 30.6092 24.9375 30.2812 24.9375Z" fill="white"/>
<path d="M24.3438 20.1875H20.7812C20.4533 20.1875 20.1875 20.4533 20.1875 20.7812V24.3438C20.1875 24.6717 20.4533 24.9375 20.7812 24.9375H24.3438C24.6717 24.9375 24.9375 24.6717 24.9375 24.3438V20.7812C24.9375 20.4533 24.6717 20.1875 24.3438 20.1875Z" fill="white"/>
<path d="M35.0312 30.875H31.4688C31.1408 30.875 30.875 31.1408 30.875 31.4688V35.0312C30.875 35.3592 31.1408 35.625 31.4688 35.625H35.0312C35.3592 35.625 35.625 35.3592 35.625 35.0312V31.4688C35.625 31.1408 35.3592 30.875 35.0312 30.875Z" fill="white"/>
<path d="M35.0312 20.1875H32.6562C32.3283 20.1875 32.0625 20.4533 32.0625 20.7812V23.1562C32.0625 23.4842 32.3283 23.75 32.6562 23.75H35.0312C35.3592 23.75 35.625 23.4842 35.625 23.1562V20.7812C35.625 20.4533 35.3592 20.1875 35.0312 20.1875Z" fill="white"/>
<path d="M23.1562 32.0625H20.7812C20.4533 32.0625 20.1875 32.3283 20.1875 32.6562V35.0312C20.1875 35.3592 20.4533 35.625 20.7812 35.625H23.1562C23.4842 35.625 23.75 35.3592 23.75 35.0312V32.6562C23.75 32.3283 23.4842 32.0625 23.1562 32.0625Z" fill="white"/>
<path d="M30.2812 7.125H25.5312C25.2033 7.125 24.9375 7.39083 24.9375 7.71875V12.4688C24.9375 12.7967 25.2033 13.0625 25.5312 13.0625H30.2812C30.6092 13.0625 30.875 12.7967 30.875 12.4688V7.71875C30.875 7.39083 30.6092 7.125 30.2812 7.125Z" fill="white"/>
<path d="M33.25 3.5625H22.5625C21.9067 3.5625 21.375 4.09416 21.375 4.75V15.4375C21.375 16.0933 21.9067 16.625 22.5625 16.625H33.25C33.9058 16.625 34.4375 16.0933 34.4375 15.4375V4.75C34.4375 4.09416 33.9058 3.5625 33.25 3.5625Z" stroke="white" stroke-width="2.375" stroke-linecap="round" stroke-linejoin="round"/>
<path d="M12.4688 7.125H7.71875C7.39083 7.125 7.125 7.39083 7.125 7.71875V12.4688C7.125 12.7967 7.39083 13.0625 7.71875 13.0625H12.4688C12.7967 13.0625 13.0625 12.7967 13.0625 12.4688V7.71875C13.0625 7.39083 12.7967 7.125 12.4688 7.125Z" fill="white"/>
<path d="M15.4375 3.5625H4.75C4.09416 3.5625 3.5625 4.09416 3.5625 4.75V15.4375C3.5625 16.0933 4.09416 16.625 4.75 16.625H15.4375C16.0933 16.625 16.625 16.0933 16.625 15.4375V4.75C16.625 4.09416 16.0933 3.5625 15.4375 3.5625Z" stroke="white" stroke-width="2.375" stroke-linecap="round" stroke-linejoin="round"/>
<path d="M12.4688 24.9375H7.71875C7.39083 24.9375 7.125 25.2033 7.125 25.5312V30.2812C7.125 30.6092 7.39083 30.875 7.71875 30.875H12.4688C12.7967 30.875 13.0625 30.6092 13.0625 30.2812V25.5312C13.0625 25.2033 12.7967 24.9375 12.4688 24.9375Z" fill="white"/>
<path d="M15.4375 21.375H4.75C4.09416 21.375 3.5625 21.9067 3.5625 22.5625V33.25C3.5625 33.9058 4.09416 34.4375 4.75 34.4375H15.4375C16.0933 34.4375 16.625 33.9058 16.625 33.25V22.5625C16.625 21.9067 16.0933 21.375 15.4375 21.375Z" stroke="white" stroke-width="2.375" stroke-linecap="round" stroke-linejoin="round"/>
</svg>
