<svg
  width="37"
  height="32"
  viewBox="0 0 37 32"
  fill="none"
  xmlns="http://www.w3.org/2000/svg"
>
<path
    d="M35.2444 17.1253L1.87193 30.8379C1.77921 30.8814 1.67704 30.9009 1.57477 30.8947C1.47251 30.8886 1.37344 30.8569 1.28666 30.8027C1.19987 30.7484 1.12814 30.6733 1.07805 30.5843C1.02797 30.4953 1.00113 30.3951 1 30.2931V21.4728C1 21.3277 1.05081 21.1872 1.14367 21.0755C1.23652 20.9638 1.3656 20.8879 1.50863 20.8609L20.8552 17.2024C22.2115 16.9462 22.2115 15.0111 20.8552 14.755L1.50785 11.0964C1.3651 11.0693 1.2363 10.9934 1.14362 10.8819C1.05093 10.7704 1.00015 10.6301 1 10.4854V1.66896C1 1.22215 1.4594 0.8703 1.87193 1.04622L35.2444 14.8375C35.4687 14.9338 35.6599 15.0934 35.7942 15.2967C35.9284 15.5 36 15.738 36 15.9814C36 16.2248 35.9284 16.4628 35.7942 16.6661C35.6599 16.8694 35.4687 17.029 35.2444 17.1253Z"
    stroke="white"
    stroke-width="2.5"
    stroke-linecap="round"
    stroke-linejoin="round"
  />
</svg>
